<?xml version="1.0" encoding="UTF-8"?>
<svg xmlns="http://www.w3.org/2000/svg" xmlns:xlink="http://www.w3.org/1999/xlink" width="2417.37pt" height="282.272pt" viewBox="0 0 2417.37 282.272">
<defs>
<g>
<g id="glyph-0-0">
<path d="M 4.9375 0 L 4.9375 -9.53125 C 5.15625 -9.75 5.820312 -10.472656 6.9375 -11.703125 C 8.0625 -12.941406 9.484375 -14.507812 11.203125 -16.40625 C 12.921875 -18.3125 14.769531 -20.367188 16.75 -22.578125 C 18.726562 -24.785156 20.722656 -27.007812 22.734375 -29.25 C 24.753906 -31.488281 26.625 -33.539062 28.34375 -35.40625 C 30.0625 -37.269531 31.445312 -38.765625 32.5 -39.890625 C 36.007812 -43.703125 38.601562 -47.082031 40.28125 -50.03125 C 41.957031 -52.976562 42.796875 -56.097656 42.796875 -59.390625 C 42.796875 -61.847656 42.195312 -64.101562 41 -66.15625 C 39.8125 -68.21875 38.113281 -69.863281 35.90625 -71.09375 C 33.707031 -72.320312 31.148438 -72.9375 28.234375 -72.9375 C 25.472656 -72.9375 23.0625 -72.335938 21 -71.140625 C 18.945312 -69.953125 17.304688 -68.5 16.078125 -66.78125 C 14.847656 -65.0625 14.046875 -63.378906 13.671875 -61.734375 L 5.046875 -65.21875 C 5.492188 -66.78125 6.296875 -68.515625 7.453125 -70.421875 C 8.609375 -72.328125 10.15625 -74.175781 12.09375 -75.96875 C 14.039062 -77.757812 16.394531 -79.210938 19.15625 -80.328125 C 21.925781 -81.453125 25.101562 -82.015625 28.6875 -82.015625 C 33.6875 -82.015625 37.957031 -80.929688 41.5 -78.765625 C 45.050781 -76.597656 47.796875 -73.816406 49.734375 -70.421875 C 51.679688 -67.023438 52.65625 -63.382812 52.65625 -59.5 C 52.65625 -56.132812 51.945312 -52.84375 50.53125 -49.625 C 49.113281 -46.414062 47.394531 -43.445312 45.375 -40.71875 C 43.363281 -38 41.421875 -35.664062 39.546875 -33.71875 C 38.578125 -32.75 37.25 -31.347656 35.5625 -29.515625 C 33.882812 -27.691406 32.078125 -25.710938 30.140625 -23.578125 C 28.203125 -21.453125 26.296875 -19.378906 24.421875 -17.359375 C 22.554688 -15.347656 20.929688 -13.59375 19.546875 -12.09375 C 18.171875 -10.601562 17.21875 -9.597656 16.6875 -9.078125 L 53.328125 -9.078125 L 53.328125 0 Z M 4.9375 0 "/>
</g>
<g id="glyph-0-1">
<path d="M 35.96875 1.796875 C 31.257812 1.796875 27.035156 0.710938 23.296875 -1.453125 C 19.566406 -3.617188 16.359375 -6.609375 13.671875 -10.421875 C 10.984375 -14.234375 8.925781 -18.675781 7.5 -23.75 C 6.082031 -28.832031 5.375 -34.285156 5.375 -40.109375 C 5.375 -45.941406 6.082031 -51.394531 7.5 -56.46875 C 8.925781 -61.550781 10.984375 -66.015625 13.671875 -69.859375 C 16.359375 -73.703125 19.566406 -76.6875 23.296875 -78.8125 C 27.035156 -80.945312 31.257812 -82.015625 35.96875 -82.015625 C 40.675781 -82.015625 44.914062 -80.945312 48.6875 -78.8125 C 52.457031 -76.6875 55.6875 -73.703125 58.375 -69.859375 C 61.0625 -66.015625 63.113281 -61.550781 64.53125 -56.46875 C 65.957031 -51.394531 66.671875 -45.941406 66.671875 -40.109375 C 66.671875 -34.285156 65.957031 -28.832031 64.53125 -23.75 C 63.113281 -18.675781 61.0625 -14.234375 58.375 -10.421875 C 55.6875 -6.609375 52.457031 -3.617188 48.6875 -1.453125 C 44.914062 0.710938 40.675781 1.796875 35.96875 1.796875 Z M 35.96875 -7.28125 C 40.300781 -7.28125 44.035156 -8.734375 47.171875 -11.640625 C 50.304688 -14.554688 52.710938 -18.5 54.390625 -23.46875 C 56.078125 -28.4375 56.921875 -33.984375 56.921875 -40.109375 C 56.921875 -46.304688 56.078125 -51.867188 54.390625 -56.796875 C 52.710938 -61.734375 50.304688 -65.65625 47.171875 -68.5625 C 44.035156 -71.476562 40.300781 -72.9375 35.96875 -72.9375 C 31.632812 -72.9375 27.914062 -71.476562 24.8125 -68.5625 C 21.71875 -65.65625 19.328125 -61.734375 17.640625 -56.796875 C 15.960938 -51.867188 15.125 -46.304688 15.125 -40.109375 C 15.125 -33.984375 15.960938 -28.4375 17.640625 -23.46875 C 19.328125 -18.5 21.71875 -14.554688 24.8125 -11.640625 C 27.914062 -8.734375 31.632812 -7.28125 35.96875 -7.28125 Z M 35.96875 -7.28125 "/>
</g>
<g id="glyph-0-2">
<path d="M 31.265625 1.796875 C 27.148438 1.796875 23.445312 1.03125 20.15625 -0.5 C 16.875 -2.03125 14.039062 -4.066406 11.65625 -6.609375 C 9.332031 -9.148438 7.515625 -12.003906 6.203125 -15.171875 C 4.898438 -18.347656 4.25 -21.582031 4.25 -24.875 C 4.25 -29.507812 5.203125 -33.632812 7.109375 -37.25 C 9.015625 -40.875 11.238281 -44.628906 13.78125 -48.515625 C 15.5 -51.054688 17.21875 -53.578125 18.9375 -56.078125 C 20.65625 -58.578125 22.410156 -61.171875 24.203125 -63.859375 C 25.992188 -66.554688 27.894531 -69.394531 29.90625 -72.375 C 31.925781 -75.363281 34.054688 -78.539062 36.296875 -81.90625 L 43.921875 -76.640625 C 41.753906 -73.503906 39.71875 -70.585938 37.8125 -67.890625 C 35.90625 -65.203125 34.128906 -62.71875 32.484375 -60.4375 C 30.847656 -58.164062 29.335938 -56.078125 27.953125 -54.171875 C 26.578125 -52.265625 25.289062 -50.566406 24.09375 -49.078125 L 24.421875 -48.625 C 25.023438 -49 26.128906 -49.390625 27.734375 -49.796875 C 29.335938 -50.210938 31.1875 -50.421875 33.28125 -50.421875 C 37.382812 -50.421875 41.300781 -49.335938 45.03125 -47.171875 C 48.769531 -45.003906 51.851562 -41.992188 54.28125 -38.140625 C 56.707031 -34.296875 57.921875 -29.875 57.921875 -24.875 C 57.921875 -21.132812 57.226562 -17.640625 55.84375 -14.390625 C 54.46875 -11.148438 52.566406 -8.3125 50.140625 -5.875 C 47.710938 -3.445312 44.890625 -1.5625 41.671875 -0.21875 C 38.460938 1.125 34.992188 1.796875 31.265625 1.796875 Z M 31.15625 -7.28125 C 34.507812 -7.28125 37.472656 -8.007812 40.046875 -9.46875 C 42.628906 -10.925781 44.664062 -12.941406 46.15625 -15.515625 C 47.65625 -18.097656 48.40625 -21.066406 48.40625 -24.421875 C 48.40625 -27.785156 47.640625 -30.753906 46.109375 -33.328125 C 44.578125 -35.910156 42.519531 -37.925781 39.9375 -39.375 C 37.363281 -40.832031 34.4375 -41.5625 31.15625 -41.5625 C 27.9375 -41.5625 25 -40.816406 22.34375 -39.328125 C 19.695312 -37.835938 17.609375 -35.800781 16.078125 -33.21875 C 14.546875 -30.644531 13.78125 -27.710938 13.78125 -24.421875 C 13.78125 -21.140625 14.523438 -18.207031 16.015625 -15.625 C 17.515625 -13.050781 19.585938 -11.015625 22.234375 -9.515625 C 24.890625 -8.023438 27.863281 -7.28125 31.15625 -7.28125 Z M 31.15625 -7.28125 "/>
</g>
</g>
<clipPath id="clip-0">
<path clip-rule="nonzero" d="M 2.796875 0 L 351 0 L 351 281.546875 L 2.796875 281.546875 Z M 2.796875 0 "/>
</clipPath>
<clipPath id="clip-1">
<path clip-rule="nonzero" d="M 2.796875 0 L 351 0 L 351 281.546875 L 2.796875 281.546875 Z M 2.796875 0 "/>
</clipPath>
<clipPath id="clip-2">
<path clip-rule="nonzero" d="M 131 0 L 607 0 L 607 281.546875 L 131 281.546875 Z M 131 0 "/>
</clipPath>
<clipPath id="clip-3">
<path clip-rule="nonzero" d="M 131 0 L 607 0 L 607 281.546875 L 131 281.546875 Z M 131 0 "/>
</clipPath>
</defs>
<path fill-rule="nonzero" fill="rgb(11.764526%, 11.764526%, 11.764526%)" fill-opacity="1" d="M 715.8125 181.464844 C 709.449219 193.949219 699.90625 203.609375 687.183594 210.449219 C 674.457031 217.292969 658.613281 220.714844 639.652344 220.714844 L 603.28125 220.714844 L 603.28125 55.070312 L 639.652344 55.070312 C 658.613281 55.070312 674.457031 58.488281 687.183594 65.332031 C 699.90625 72.175781 709.449219 81.777344 715.8125 94.140625 C 722.171875 106.507812 725.355469 121.089844 725.355469 137.890625 C 725.355469 154.457031 722.171875 168.984375 715.8125 181.464844 M 712.570312 25.363281 C 692.765625 14.441406 669.179688 8.976562 641.8125 8.976562 L 554.671875 8.976562 L 554.671875 266.804688 L 641.8125 266.804688 C 669.179688 266.804688 692.765625 261.40625 712.570312 250.601562 C 732.375 239.800781 747.617188 224.675781 758.304688 205.230469 C 768.984375 185.785156 774.328125 163.339844 774.328125 137.890625 C 774.328125 112.449219 768.984375 90.0625 758.304688 70.734375 C 747.617188 51.414062 732.375 36.289062 712.570312 25.363281 "/>
<path fill-rule="nonzero" fill="rgb(11.764526%, 11.764526%, 11.764526%)" fill-opacity="1" d="M 845.960938 152.65625 C 846.9375 149.304688 848.082031 146.074219 849.585938 143.113281 C 853.90625 134.59375 859.847656 127.933594 867.410156 123.128906 C 874.972656 118.328125 883.308594 115.925781 892.4375 115.925781 C 899.394531 115.925781 905.578125 117.066406 910.980469 119.347656 C 916.382812 121.628906 921.003906 124.566406 924.84375 128.167969 C 928.683594 131.769531 931.6875 135.730469 933.847656 140.050781 C 936.007812 144.375 937.207031 148.578125 937.449219 152.65625 Z M 941.769531 90 C 928.324219 81.597656 911.757812 77.394531 892.078125 77.394531 C 873.828125 77.394531 857.625 81.898438 843.464844 90.898438 C 829.296875 99.902344 818.132812 111.847656 809.972656 126.730469 C 801.8125 141.617188 797.730469 157.820312 797.730469 175.339844 C 797.730469 194.066406 801.871094 210.753906 810.152344 225.394531 C 818.4375 240.042969 829.835938 251.5625 844.363281 259.964844 C 858.882812 268.363281 875.390625 272.566406 893.875 272.566406 C 914.277344 272.566406 931.445312 268.183594 945.371094 259.421875 C 959.289062 250.664062 970.578125 238.71875 979.21875 223.59375 L 941.046875 204.867188 C 936.726562 212.3125 930.722656 218.496094 923.042969 223.414062 C 915.359375 228.335938 905.878906 230.796875 894.597656 230.796875 C 884.992188 230.796875 876.289062 228.578125 868.488281 224.132812 C 860.6875 219.695312 854.503906 213.214844 849.945312 204.691406 C 847.050781 199.289062 845.183594 193.046875 844.125 186.144531 L 981.738281 186.144531 C 981.976562 184.945312 982.21875 182.964844 982.460938 180.203125 C 982.695312 177.445312 982.820312 174.144531 982.820312 170.300781 C 982.820312 153.257812 979.335938 137.710938 972.375 123.667969 C 965.414062 109.625 955.210938 98.40625 941.769531 90 "/>
<path fill-rule="nonzero" fill="rgb(11.764526%, 11.764526%, 11.764526%)" fill-opacity="1" d="M 1087.105469 202.710938 L 1084.222656 202.710938 L 1037.773438 83.15625 L 984.117188 83.15625 L 1061.898438 266.804688 L 1108.710938 266.804688 L 1187.210938 83.15625 L 1134.277344 83.15625 Z M 1087.105469 202.710938 "/>
<path fill-rule="nonzero" fill="rgb(11.764526%, 11.764526%, 11.764526%)" fill-opacity="1" d="M 1210.433594 266.804688 L 1259.046875 266.804688 L 1259.046875 163.820312 L 1362.394531 163.820312 L 1362.394531 117.726562 L 1259.046875 117.726562 L 1259.046875 55.070312 L 1373.917969 55.070312 L 1373.917969 8.976562 L 1210.433594 8.976562 Z M 1210.433594 266.804688 "/>
<path fill-rule="nonzero" fill="rgb(11.764526%, 11.764526%, 11.764526%)" fill-opacity="1" d="M 1436.371094 152.65625 C 1437.347656 149.304688 1438.492188 146.074219 1439.996094 143.113281 C 1444.316406 134.59375 1450.257812 127.933594 1457.820312 123.128906 C 1465.382812 118.328125 1473.71875 115.925781 1482.847656 115.925781 C 1489.804688 115.925781 1495.988281 117.066406 1501.390625 119.347656 C 1506.792969 121.628906 1511.414062 124.566406 1515.253906 128.167969 C 1519.09375 131.769531 1522.09375 135.730469 1524.257812 140.050781 C 1526.417969 144.375 1527.617188 148.578125 1527.859375 152.65625 Z M 1532.179688 90 C 1518.730469 81.597656 1502.167969 77.394531 1482.484375 77.394531 C 1464.238281 77.394531 1448.035156 81.898438 1433.875 90.898438 C 1419.707031 99.902344 1408.542969 111.847656 1400.382812 126.730469 C 1392.21875 141.617188 1388.140625 157.820312 1388.140625 175.339844 C 1388.140625 194.066406 1392.28125 210.753906 1400.5625 225.394531 C 1408.847656 240.042969 1420.246094 251.5625 1434.773438 259.964844 C 1449.292969 268.363281 1465.796875 272.566406 1484.285156 272.566406 C 1504.6875 272.566406 1521.855469 268.183594 1535.78125 259.421875 C 1549.699219 250.664062 1560.988281 238.71875 1569.628906 223.59375 L 1531.457031 204.867188 C 1527.136719 212.3125 1521.132812 218.496094 1513.453125 223.414062 C 1505.769531 228.335938 1496.289062 230.796875 1485.007812 230.796875 C 1475.402344 230.796875 1466.699219 228.578125 1458.898438 224.132812 C 1451.097656 219.695312 1444.914062 213.214844 1440.355469 204.691406 C 1437.460938 199.289062 1435.589844 193.046875 1434.535156 186.144531 L 1572.148438 186.144531 C 1572.386719 184.945312 1572.628906 182.964844 1572.871094 180.203125 C 1573.105469 177.445312 1573.230469 174.144531 1573.230469 170.300781 C 1573.230469 153.257812 1569.746094 137.710938 1562.785156 123.667969 C 1555.820312 109.625 1545.621094 98.40625 1532.179688 90 "/>
<path fill-rule="nonzero" fill="rgb(11.764526%, 11.764526%, 11.764526%)" fill-opacity="1" d="M 1694.832031 157.335938 L 1667.824219 150.855469 C 1661.101562 149.179688 1655.339844 146.65625 1650.542969 143.292969 C 1645.738281 139.933594 1643.339844 135.972656 1643.339844 131.410156 C 1643.339844 127.089844 1645.738281 123.367188 1650.542969 120.246094 C 1655.339844 117.128906 1661.824219 115.566406 1669.988281 115.566406 C 1676.945312 115.566406 1683.488281 117.007812 1689.613281 119.886719 C 1695.734375 122.765625 1700.710938 127.808594 1704.554688 135.011719 L 1744.886719 117.367188 C 1740.566406 108.246094 1734.804688 100.746094 1727.601562 94.859375 C 1720.402344 88.980469 1711.875 84.597656 1702.035156 81.714844 C 1692.1875 78.835938 1681.148438 77.394531 1668.90625 77.394531 C 1655.699219 77.394531 1643.636719 79.679688 1632.71875 84.238281 C 1621.789062 88.800781 1613.148438 95.164062 1606.789062 103.324219 C 1600.425781 111.488281 1597.246094 121.089844 1597.246094 132.128906 C 1597.246094 141.976562 1599.707031 150.675781 1604.628906 158.238281 C 1609.546875 165.800781 1615.972656 172.042969 1623.894531 176.960938 C 1631.816406 181.886719 1640.214844 185.304688 1649.101562 187.222656 L 1670.707031 191.90625 C 1675.75 192.867188 1680.667969 194.128906 1685.472656 195.6875 C 1690.269531 197.25 1694.292969 199.410156 1697.535156 202.167969 C 1700.777344 204.929688 1702.394531 208.710938 1702.394531 213.511719 C 1702.394531 220.234375 1699.273438 224.855469 1693.03125 227.375 C 1686.785156 229.898438 1679.828125 231.15625 1672.148438 231.15625 C 1662.785156 231.15625 1654.621094 228.941406 1647.660156 224.496094 C 1640.695312 220.054688 1635.175781 213.511719 1631.097656 204.871094 L 1588.964844 223.234375 C 1592.324219 232.121094 1597.484375 240.285156 1604.449219 247.722656 C 1611.410156 255.164062 1620.472656 261.167969 1631.636719 265.726562 C 1642.800781 270.285156 1656.304688 272.566406 1672.148438 272.566406 C 1686.550781 272.566406 1699.632812 270.101562 1711.398438 265.1875 C 1723.15625 260.269531 1732.519531 253.300781 1739.484375 244.300781 C 1746.445312 235.296875 1749.929688 224.800781 1749.929688 212.792969 C 1749.929688 199.351562 1745.304688 187.828125 1736.066406 178.222656 C 1726.820312 168.625 1713.074219 161.65625 1694.832031 157.335938 "/>
<path fill-rule="nonzero" fill="rgb(11.764526%, 11.764526%, 11.764526%)" fill-opacity="1" d="M 1877.003906 223.773438 C 1873.636719 224.855469 1870.035156 225.394531 1866.199219 225.394531 C 1858.035156 225.394531 1852.15625 223.296875 1848.554688 219.09375 C 1844.953125 214.894531 1843.152344 208.351562 1843.152344 199.46875 L 1843.152344 123.488281 L 1888.164062 123.488281 L 1888.164062 83.15625 L 1843.152344 83.15625 L 1843.152344 31.304688 L 1795.980469 31.304688 L 1795.980469 83.15625 L 1763.933594 83.15625 L 1763.933594 123.488281 L 1795.980469 123.488281 L 1795.980469 208.109375 C 1795.980469 227.320312 1801.382812 242.382812 1812.183594 253.300781 C 1822.988281 264.230469 1837.871094 269.6875 1856.835938 269.6875 C 1862.597656 269.6875 1868.179688 269.144531 1873.582031 268.066406 C 1878.980469 266.984375 1884.324219 265.488281 1889.605469 263.566406 L 1889.605469 217.472656 C 1884.5625 220.59375 1880.363281 222.691406 1877.003906 223.773438 "/>
<path fill-rule="nonzero" fill="rgb(100%, 100%, 100%)" fill-opacity="1" d="M 2088.46875 267.40625 L 2273.738281 267.40625 C 2345.027344 267.40625 2402.820312 209.613281 2402.820312 138.324219 C 2402.820312 67.035156 2345.027344 9.242188 2273.738281 9.242188 L 2088.46875 9.242188 C 2017.179688 9.242188 1959.386719 67.035156 1959.386719 138.324219 C 1959.386719 209.613281 2017.179688 267.40625 2088.46875 267.40625 "/>
<path fill="none" stroke-width="9.557" stroke-linecap="butt" stroke-linejoin="round" stroke="rgb(11.764526%, 11.764526%, 11.764526%)" stroke-opacity="1" stroke-miterlimit="10" d="M -0.000723777 0.00018985 L 185.746631 0.00018985 C 257.219553 0.00018985 315.161574 57.942211 315.161574 129.415133 C 315.161574 200.888055 257.219553 258.830076 185.746631 258.830076 L -0.000723777 258.830076 C -71.473646 258.830076 -129.415667 200.888055 -129.415667 129.415133 C -129.415667 57.942211 -71.473646 0.00018985 -0.000723777 0.00018985 Z M -0.000723777 0.00018985 " transform="matrix(0.997428, 0, 0, -0.997428, 2088.469472, 267.406439)"/>
<path fill-rule="nonzero" fill="rgb(91.764832%, 26.274109%, 20.783997%)" fill-opacity="1" d="M 206.5625 32.386719 C 222.558594 54.640625 217.480469 85.644531 195.226562 101.636719 L 89.226562 177.816406 C 66.972656 193.8125 35.96875 188.734375 19.976562 166.480469 C 3.980469 144.226562 9.058594 113.222656 31.3125 97.230469 L 137.3125 21.050781 C 159.566406 5.054688 190.570312 10.132812 206.5625 32.386719 "/>
<g clip-path="url(#clip-0)">
<path fill="none" stroke-width="9.557" stroke-linecap="butt" stroke-linejoin="miter" stroke="rgb(11.764526%, 11.764526%, 11.764526%)" stroke-opacity="1" stroke-miterlimit="10" d="M -0.00134675 -0.000946451 C 16.036002 -22.312247 10.94478 -53.396115 -11.36652 -69.429547 L -117.639902 -145.805708 C -139.951203 -161.843057 -171.03507 -156.751835 -187.068503 -134.440534 C -203.105852 -112.129233 -198.01463 -81.045366 -175.703329 -65.011933 L -69.429948 11.364227 C -47.118647 27.401576 -16.034779 22.310354 -0.00134675 -0.000946451 Z M -0.00134675 -0.000946451 " transform="matrix(0.997428, 0, 0, -0.997428, 206.563843, 32.385775)"/>
</g>
<path fill-rule="nonzero" fill="rgb(25.881958%, 52.157593%, 95.68634%)" fill-opacity="1" d="M 19.976562 108.582031 C 3.980469 130.835938 9.058594 161.839844 31.308594 177.832031 L 137.3125 254.011719 C 159.566406 270.007812 190.570312 264.929688 206.5625 242.675781 C 222.558594 220.421875 217.480469 189.417969 195.226562 173.425781 L 89.226562 97.246094 C 66.972656 81.25 35.96875 86.328125 19.976562 108.582031 "/>
<g clip-path="url(#clip-1)">
<path fill="none" stroke-width="9.557" stroke-linecap="butt" stroke-linejoin="miter" stroke="rgb(11.764526%, 11.764526%, 11.764526%)" stroke-opacity="1" stroke-miterlimit="10" d="M 0.00179706 -0.000872199 C -16.035552 -22.312173 -10.94433 -53.39604 11.363054 -69.429473 L 117.640352 -145.805633 C 139.951653 -161.842982 171.035521 -156.75176 187.068953 -134.44046 C 203.106302 -112.129159 198.01508 -81.045291 175.70378 -65.011859 L 69.430398 11.364302 C 47.119097 27.40165 16.03523 22.310428 0.00179706 -0.000872199 Z M 0.00179706 -0.000872199 " transform="matrix(0.997428, 0, 0, -0.997428, 19.97477, 108.581161)"/>
</g>
<path fill-rule="nonzero" fill="rgb(97.647095%, 67.059326%, 0%)" fill-opacity="1" d="M 462.699219 108.582031 C 478.695312 130.835938 473.617188 161.839844 451.363281 177.832031 L 345.363281 254.011719 C 323.109375 270.007812 292.105469 264.929688 276.113281 242.675781 C 260.117188 220.421875 265.195312 189.417969 287.449219 173.425781 L 393.449219 97.246094 C 415.703125 81.25 446.707031 86.328125 462.699219 108.582031 "/>
<g clip-path="url(#clip-2)">
<path fill="none" stroke-width="9.557" stroke-linecap="butt" stroke-linejoin="miter" stroke="rgb(11.764526%, 11.764526%, 11.764526%)" stroke-opacity="1" stroke-miterlimit="10" d="M -0.00173279 -0.000872199 C 16.035616 -22.312173 10.944394 -53.39604 -11.366906 -69.429473 L -117.640288 -145.805633 C -139.951589 -161.842982 -171.035456 -156.75176 -187.068889 -134.44046 C -203.106238 -112.129159 -198.015016 -81.045291 -175.703715 -65.011859 L -69.430334 11.364302 C -47.119033 27.40165 -16.035165 22.310428 -0.00173279 -0.000872199 Z M -0.00173279 -0.000872199 " transform="matrix(0.997428, 0, 0, -0.997428, 462.700947, 108.581161)"/>
</g>
<path fill-rule="nonzero" fill="rgb(20.391846%, 65.882874%, 32.548523%)" fill-opacity="1" d="M 276.113281 32.386719 C 260.117188 54.640625 265.195312 85.644531 287.449219 101.636719 L 393.449219 177.816406 C 415.703125 193.8125 446.707031 188.734375 462.699219 166.480469 C 478.695312 144.226562 473.617188 113.222656 451.363281 97.230469 L 345.363281 21.050781 C 323.109375 5.054688 292.105469 10.132812 276.113281 32.386719 "/>
<g clip-path="url(#clip-3)">
<path fill="none" stroke-width="9.557" stroke-linecap="butt" stroke-linejoin="miter" stroke="rgb(11.764526%, 11.764526%, 11.764526%)" stroke-opacity="1" stroke-miterlimit="10" d="M 0.00141102 -0.000946451 C -16.035938 -22.312247 -10.944716 -53.396115 11.366585 -69.429547 L 117.639966 -145.805708 C 139.951267 -161.843057 171.035135 -156.751835 187.068567 -134.440534 C 203.105916 -112.129233 198.014694 -81.045366 175.703394 -65.011933 L 69.430012 11.364227 C 47.118711 27.401576 16.034844 22.310354 0.00141102 -0.000946451 Z M 0.00141102 -0.000946451 " transform="matrix(0.997428, 0, 0, -0.997428, 276.111874, 32.385775)"/>
</g>
<g fill="rgb(11.764526%, 11.764526%, 11.764526%)" fill-opacity="1">
<use xlink:href="#glyph-0-0" x="2057.526077" y="178.740715"/>
<use xlink:href="#glyph-0-1" x="2115.11435" y="178.740715"/>
</g>
<g fill="rgb(11.764526%, 11.764526%, 11.764526%)" fill-opacity="1">
<use xlink:href="#glyph-0-0" x="2184.914923" y="178.740715"/>
<use xlink:href="#glyph-0-2" x="2242.503196" y="178.740715"/>
</g>
</svg>
